<svg xmlns="http://www.w3.org/2000/svg" width="65.57" height="14" viewBox="0 0 65.57 14">
  <g id="Edit_profile" data-name="Edit profile" transform="translate(-157.322 -336)">
    <text id="Profile_text_slider_menu" data-name="Profile text slider menu" transform="translate(174.892 347)" fill="orange" font-size="10" font-family="SegoeUI, Segoe UI"><tspan x="0" y="0">Edit Profile</tspan></text>
    <g id="Group_1894" data-name="Group 1894" transform="translate(157.322 338)">
      <path id="Path_4222" data-name="Path 4222" d="M0,482.7l1.177-.153L.155,481.528Z" transform="translate(-0.002 -471.892)" fill="orange"/>
      <path id="Path_4223" data-name="Path 4223" d="M10.778,103.985l-.121.925,1.423,1.423.925-.121,6.3-6.3-2.227-2.227Z" transform="translate(-10.444 -95.733)" fill="orange"/>
      <path id="Path_4224" data-name="Path 4224" d="M349.008.112A.385.385,0,0,0,348.734,0a.417.417,0,0,0-.294.123l-1.52,1.52,2.227,2.227,1.52-1.52a.4.4,0,0,0,.011-.568Z" transform="translate(-339.978)" fill="orange"/>
    </g>
  </g>
</svg>
