<svg xmlns="http://www.w3.org/2000/svg" width="104" height="16.195" viewBox="0 0 104 16.195">
  <g id="Group_8112" data-name="Group 8112" transform="translate(-127 -145)">
    <text id="_124_ratings_" data-name="(124 ratings)" transform="translate(164 158)" fill="#b6b7b7" font-size="12" font-family="SegoeUI, Segoe UI"><tspan x="0" y="0">(124 ratings)</tspan></text>
    <text id="_4.9" data-name="4.9" transform="translate(145 158)" fill="orange" font-size="11" font-family="SegoeUI, Segoe UI"><tspan x="0" y="0">4.9</tspan></text>
    <path id="Path_8560" data-name="Path 8560" d="M10.729,59.191a.65.65,0,0,1-.318-.082L6.886,57.115,3.361,59.109a.648.648,0,0,1-.372.084.66.66,0,0,1-.357-.142.741.741,0,0,1-.233-.325.8.8,0,0,1-.039-.409l.691-4.2L.2,51.126a.764.764,0,0,1-.182-.347.8.8,0,0,1,.01-.4.752.752,0,0,1,.213-.34.668.668,0,0,1,.347-.167l3.94-.62,1.735-3.831a.731.731,0,0,1,.255-.307.648.648,0,0,1,.734,0,.73.73,0,0,1,.255.307l1.755,3.823,3.94.62a.668.668,0,0,1,.347.167.753.753,0,0,1,.213.34.8.8,0,0,1,.01.4.764.764,0,0,1-.182.347l-2.848,2.987.691,4.2a.8.8,0,0,1-.037.417.741.741,0,0,1-.239.33A.655.655,0,0,1,10.729,59.191Z" transform="translate(127 102)" fill="orange"/>
  </g>
</svg>
