<svg xmlns="http://www.w3.org/2000/svg" id="Monkey_face" data-name="Monkey face" width="102" height="105" viewBox="0 0 102 105">
  <g id="Group_873" data-name="Group 873">
    <path id="Path_2736" data-name="Path 2736" d="M782.17,943.052a4.763,4.763,0,1,0-4.763,4.763A4.763,4.763,0,0,0,782.17,943.052Zm-6.3.868a2.183,2.183,0,1,1,2.183-2.183A2.183,2.183,0,0,1,775.871,943.921Z" transform="translate(-740.961 -897.522)" fill="#4a4b4d"/>
    <path id="Path_2737" data-name="Path 2737" d="M826.08,938.289a4.763,4.763,0,1,0,4.763,4.763A4.763,4.763,0,0,0,826.08,938.289Zm-1.536,5.632a2.183,2.183,0,1,1,2.183-2.183A2.183,2.183,0,0,1,824.544,943.921Z" transform="translate(-760.525 -897.522)" fill="#4a4b4d"/>
    <path id="Path_2738" data-name="Path 2738" d="M807.184,983.615c0-3.707-3.005-9.1-6.712-9.1s-6.712,5.394-6.712,9.1,3,3.855,6.712,3.855S807.184,987.322,807.184,983.615Z" transform="translate(-749.472 -911.848)" fill="#4a4b4d"/>
    <path id="Path_2739" data-name="Path 2739" d="M793.826,1012.62c11.079,0,20.06-4.757,20.06-10.626,0-2.259-1.334-4.352-3.6-6.073A6.438,6.438,0,0,1,811.6,999.7c0,5.868-8.981,10.625-20.061,10.625-6.814,0-12.831-1.8-16.457-4.552C777.959,1009.777,785.264,1012.62,793.826,1012.62Z" transform="translate(-742.121 -920.33)" fill="#4a4b4d"/>
    <path id="Path_2740" data-name="Path 2740" d="M747.241,939.659c.4,3.833,1.7,6.771,3.394,7.345a24.413,24.413,0,0,0,6.779,1,18.464,18.464,0,0,1-.824-2.263c-1.7-5.86-.314-11.748,3.124-15.413-1.477-.134-2.969-.209-4.423-.209a13.393,13.393,0,0,0-5.208.632,3.762,3.762,0,0,0-1.257,1.126,7.016,7.016,0,0,1,1.862,1.032c-.041.074-.087.144-.132.219A60.942,60.942,0,0,0,747.241,939.659Z" transform="translate(-730.758 -894.295)" fill="#4a4b4d"/>
    <path id="Path_2741" data-name="Path 2741" d="M844.817,945.411a18.278,18.278,0,0,1-.94,2.6A24.852,24.852,0,0,0,850.9,947c1.688-.574,2.99-3.5,3.392-7.332a61.213,61.213,0,0,0-3.467-6.714,7.97,7.97,0,0,1,1.885-1.082,3.768,3.768,0,0,0-1.258-1.128,13.4,13.4,0,0,0-5.208-.631c-1.468,0-2.973.077-4.462.213C845.067,933.971,846.4,939.691,844.817,945.411Z" transform="translate(-768.781 -894.295)" fill="#4a4b4d"/>
    <path id="Path_2742" data-name="Path 2742" d="M828.024,937.457a21.729,21.729,0,0,0-5.032-8.22,6.3,6.3,0,0,1-.2.7,4.454,4.454,0,0,1-2.22,2.362c-.68.394-.77.47-.839.9l-.08.5a13.463,13.463,0,0,1,3.5,5.478c2.016,5.842,0,11.873-4.508,13.464a6.723,6.723,0,0,1-1.658.359c-.016-.083-.028-.165-.045-.252-.315-1.706-.713-3.414-1.185-5.112a8.335,8.335,0,0,1-4.307,3.859A34.306,34.306,0,0,1,800.73,953c-.626,0-1.25-.014-1.87-.038-.054.053-.1.11-.158.162,6.027,4.242,9.827,10.359,9.872,17.186.081,12.936-13.342,23.51-29.982,23.622s-30.2-10.29-30.284-23.226c-.041-6.827,3.678-12.993,9.648-17.313-.145-.135-.282-.281-.422-.422-.524.018-1.05.03-1.578.03a34.3,34.3,0,0,1-10.716-1.5,8.307,8.307,0,0,1-4.28-3.811c-.5,1.851-.922,3.714-1.241,5.575a53.051,53.051,0,0,0-.729,6.575c-.049.895-.065,1.785-.061,2.667.146,22.982,16.991,36.647,39.695,36.5s39.369-14.036,39.222-37.019c0-.8-.032-1.6-.081-2.411a10.855,10.855,0,0,0,3.058-.606C828.02,956.424,831.245,946.794,828.024,937.457Z" transform="translate(-727.273 -894.005)" fill="#4a4b4d"/>
    <path id="Path_2743" data-name="Path 2743" d="M780.786,903.91a12.963,12.963,0,0,1,1.341.567,37.25,37.25,0,0,0,13.613.114,12.988,12.988,0,0,1,3.5-1.318,59.468,59.468,0,0,1,13.787-3.719c-.151-.153-.3-.31-.451-.461-2.067-2.047-10.116-8.344-10.985-9.1-3.011-2.618-11.1-9.227-12.993-19.132a11.913,11.913,0,0,0-2.5,7.2,16.69,16.69,0,0,0,1.887,7.918c-2.182-1.289-6-7.755-6.8-12.375-2.758,4.014-1.924,12.5-.749,14.865-3.214-1.333-5.814-7.087-5.869-9.477-1.614,2.025-3.518,8.755-.562,13.8a40.391,40.391,0,0,0-8.538,6.747A56.759,56.759,0,0,1,780.786,903.91Z" transform="translate(-738.302 -870.861)" fill="#4a4b4d"/>
    <path id="Path_2744" data-name="Path 2744" d="M732.139,953.006a6.831,6.831,0,0,1-1.707-.362c-4.563-1.591-6.6-7.622-4.563-13.464a13.438,13.438,0,0,1,3.538-5.478l-.08-.5c-.07-.431-.162-.506-.85-.9a4.479,4.479,0,0,1-2.247-2.362,6.134,6.134,0,0,1-.2-.7,21.671,21.671,0,0,0-5.094,8.22c-3.261,9.337,0,18.967,7.288,21.511a11.067,11.067,0,0,0,3.137.61A52.541,52.541,0,0,1,732.139,953.006Z" transform="translate(-719.67 -893.953)" fill="#4a4b4d"/>
  </g>
  <path id="Path_2745" data-name="Path 2745" d="M817.485,919.913c-2.67-1.011-14.97.332-14.97.332h0c-7.071.63-14.594,2.921-18.555,5.126-.179.036-.388.079-.642.128a38.52,38.52,0,0,1-14.959,0c-.21-.041-.391-.077-.549-.109-3.953-2.21-11.5-4.513-18.588-5.144h0s-12.3-1.343-14.971-.332c-1.75.663-1.555,4.274-1.09,5.558.6,1.656,2.765,1.238,3.145,3.6.77,4.787,2.095,15.127,7.065,16.84a32.529,32.529,0,0,0,10.12,1.405,37.125,37.125,0,0,0,12.4-1.925h0c5.435-2.05,6.755-7.838,6.67-12.172a1.881,1.881,0,0,1,1.519-1.885,9.352,9.352,0,0,1,1.75-.215,9.532,9.532,0,0,1,1.809.228,1.881,1.881,0,0,1,1.52,1.885c-.082,4.333,1.241,10.112,6.67,12.16h0a37.126,37.126,0,0,0,12.4,1.925,32.532,32.532,0,0,0,10.12-1.405c4.97-1.713,6.295-12.054,7.065-16.84.381-2.365,2.546-1.946,3.145-3.6C819.04,924.187,819.235,920.576,817.485,919.913ZM765.026,943.92c-5.566,1.949-15.531,2.483-20.817.661-3.06-1.054-4.721-5.975-4.721-11.6,0-4.125,2.257-7.317,4.024-8.108a14.367,14.367,0,0,1,5.882-.79c6.487,0,14.132,1.42,17.766,3.682a5.982,5.982,0,0,1,3,4.365C770.34,934.752,770.672,941.943,765.026,943.92Zm42.508.661c-5.285,1.821-15.251,1.287-20.817-.661-5.646-1.977-5.313-9.168-5.135-11.787a5.983,5.983,0,0,1,3-4.365c3.634-2.262,11.278-3.682,17.766-3.682a14.37,14.37,0,0,1,5.883.79c1.767.791,4.024,3.983,4.024,8.108C812.254,938.607,810.594,943.528,807.534,944.582Z" transform="translate(-724.872 -890.115)" fill="#ff6600"/>
</svg>